<?xml version="1.0" encoding="UTF-8" standalone="no"?> <!-- Created with Vectornator for iOS (http://vectornator.io/) --><!DOCTYPE svg PUBLIC "-//W3C//DTD SVG 1.1//EN" "http://www.w3.org/Graphics/SVG/1.1/DTD/svg11.dtd">
<svg height="100%" style="fill-rule:evenodd;clip-rule:evenodd;stroke-linecap:round;stroke-linejoin:round;" xmlns:xlink="http://www.w3.org/1999/xlink" xmlns="http://www.w3.org/2000/svg" xml:space="preserve" width="100%" xmlns:vectornator="http://vectornator.io" version="1.1" viewBox="0 0 1000 300">
<metadata>
<vectornator:setting key="DisplayWhiteBackground" value="0"/>
<vectornator:setting key="RulersVisible" value="1"/>
<vectornator:setting key="Units" value="Pixels"/>
<vectornator:setting key="New" value="1"/>
<vectornator:setting key="DynamicGuides" value="0"/>
<vectornator:setting key="GuidesVisible" value="1"/>
<vectornator:setting key="SnapToPoints" value="0"/>
<vectornator:setting key="SnapToGrid" value="0"/>
<vectornator:setting key="SnapToGuides" value="1"/>
<vectornator:setting key="DimensionsVisible" value="1"/>
<vectornator:setting key="SnapToEdges" value="0"/>
</metadata>
<defs/>
<g id="Layer 1" vectornator:layerName="Layer 1">
<g opacity="1">
<path d="M38.9049+117.92C33.7385+117.92+29.3691+116.297+25.7967+113.051C22.2242+109.805+20.438+105.91+20.438+101.365C20.438+96.8208+22.3066+92.9526+26.044+89.7606C29.7813+86.5687+34.0683+84.9727+38.9049+84.9727C42.5323+84.9727+45.7475+85.7572+48.5505+87.3261C51.3535+88.895+53.5519+90.9509+55.1458+93.4936C56.7397+96.0364+57.5366+98.6602+57.5366+101.365C57.5366+106.126+55.6954+110.076+52.013+113.213C48.3307+116.351+43.9613+117.92+38.9049+117.92ZM20.438+244.679C10.3252+244.679+0.926835+241.811-7.757+236.077L-0.172384+215.951C4.7741+217.574+8.56641+218.386+11.2045+218.386C18.4594+218.386+22.0868+213.895+22.0868+204.914L22.0868+128.308L56.8771+128.308L56.8771+204.914C56.8771+217.249+53.6344+226.961+47.149+234.048C40.6636+241.135+31.7599+244.679+20.438+244.679Z" opacity="1" fill="#455875"/>
<path d="M102.715+210.92C93.4811+210.92+86.2812+207.998+81.1149+202.155C75.9485+196.312+73.3654+188.36+73.3654+178.297L73.3654+128.308L108.321+128.308L108.321+176.836C108.321+179.325+109.008+181.245+110.382+182.598C111.756+183.95+113.542+184.627+115.74+184.627C117.939+184.627+120.192+183.977+122.5+182.679L124.314+205.239C121.896+207.078+118.736+208.485+114.833+209.459C110.931+210.433+106.892+210.92+102.715+210.92ZM90.8429+116.135C85.6766+116.135+81.3072+114.539+77.7348+111.347C74.1623+108.155+72.3761+104.233+72.3761+99.58C72.3761+94.9273+74.2447+91.032+77.9821+87.8942C81.7194+84.7563+86.0064+83.1874+90.8429+83.1874C95.8994+83.1874+100.269+84.8104+103.951+88.0565C107.634+91.3025+109.475+95.1437+109.475+99.58C109.475+104.341+107.606+108.29+103.869+111.428C100.131+114.566+95.7894+116.135+90.8429+116.135Z" opacity="1" fill="#455875"/>
<path d="M133.877+129.444L167.019+129.444L167.019+145.999C170.756+139.615+175.016+134.881+179.797+131.797C184.579+128.713+190.267+127.171+196.863+127.171C203.348+127.171+208.982+128.767+213.763+131.959C218.545+135.151+222.145+139.452+224.563+144.862C231.598+133.068+241.821+127.171+255.231+127.171C261.607+127.171+267.185+128.849+271.967+132.203C276.748+135.557+280.458+140.399+283.096+146.729C285.734+153.059+287.054+160.498+287.054+169.046L287.054+209.621L252.263+209.621L252.263+169.046C252.263+163.527+251.301+159.361+249.378+156.548C247.454+153.735+244.789+152.328+241.381+152.328C237.644+152.328+234.428+153.897+231.735+157.035C229.042+160.173+227.696+163.96+227.696+168.396L227.696+209.621L193.235+209.621L193.235+169.046C193.235+163.527+192.273+159.361+190.35+156.548C188.426+153.735+185.706+152.328+182.188+152.328C178.451+152.328+175.263+153.897+172.625+157.035C169.987+160.173+168.668+163.96+168.668+168.396L168.668+209.621L133.877+209.621L133.877+129.444Z" opacity="1" fill="#455875"/>
<path d="M303.047+129.444L336.189+129.444L336.189+145.999C339.926+139.615+344.185+134.881+348.967+131.797C353.749+128.713+359.437+127.171+366.032+127.171C372.518+127.171+378.151+128.767+382.933+131.959C387.715+135.151+391.314+139.452+393.733+144.862C400.768+133.068+410.99+127.171+424.401+127.171C430.776+127.171+436.355+128.849+441.137+132.203C445.918+135.557+449.628+140.399+452.266+146.729C454.904+153.059+456.223+160.498+456.223+169.046L456.223+209.621L421.433+209.621L421.433+169.046C421.433+163.527+420.471+159.361+418.548+156.548C416.624+153.735+413.958+152.328+410.551+152.328C406.813+152.328+403.598+153.897+400.905+157.035C398.212+160.173+396.866+163.96+396.866+168.396L396.866+209.621L362.405+209.621L362.405+169.046C362.405+163.527+361.443+159.361+359.52+156.548C357.596+153.735+354.875+152.328+351.358+152.328C347.621+152.328+344.433+153.897+341.795+157.035C339.157+160.173+337.837+163.96+337.837+168.396L337.837+209.621L303.047+209.621L303.047+129.444Z" opacity="1" fill="#455875"/>
<path d="M516.076+246.789C510.03+246.789+504.259+246.193+498.763+245.003L501.401+220.982C505.688+221.632+509.645+221.956+513.273+221.956C519.758+221.956+524.705+220.036+528.112+216.194C531.52+212.353+533.279+205.131+533.389+194.527C527.673+205.347+518.494+210.757+505.853+210.757C495.191+210.757+486.864+207.051+480.873+199.64C474.883+192.228+471.887+181.976+471.887+168.883L471.887+128.308L506.513+128.308L506.513+173.915C506.513+177.593+507.557+180.65+509.645+183.085C511.734+185.519+514.592+186.737+518.219+186.737C521.957+186.737+525.007+185.168+527.37+182.03C529.734+178.892+530.915+174.78+530.915+169.695L530.915+128.308L565.706+128.308L565.706+189.009C565.706+207.836+561.419+222.173+552.845+232.019C544.271+241.865+532.014+246.789+516.076+246.789Z" opacity="1" fill="#455875"/>
<path d="M581.534+136.747C587.14+136.747+590.823+136.639+592.581+136.423C594.34+136.206+595.494+135.557+596.044+134.475C596.594+133.393+596.868+131.337+596.868+128.308L581.534+128.308L581.534+97.9569L615.335+97.9569L615.335+114.512C615.335+126.955+614.593+135.909+613.109+141.373C611.625+146.837+608.603+150.597+604.041+152.653C599.479+154.709+591.977+155.737+581.534+155.737L581.534+136.747Z" opacity="1" fill="#455875"/>
<path d="M659.524+210.92C647.982+210.92+637.869+209.243+629.185+205.888L632.978+186.574C640.892+189.387+648.587+190.794+656.061+190.794C661.557+190.794+664.305+189.279+664.305+186.25C664.305+184.735+663.509+183.49+661.915+182.517C660.321+181.543+657.325+180.677+652.929+179.92C643.805+178.189+637.237+175.267+633.225+171.155C629.213+167.044+627.207+161.201+627.207+153.627C627.647+145.079+631.109+138.533+637.594+133.988C644.08+129.444+652.929+127.171+664.141+127.171C669.857+127.171+674.776+127.523+678.898+128.226C683.02+128.93+686.785+130.093+690.192+131.716L686.73+151.03C683.542+149.84+680.052+148.92+676.26+148.271C672.467+147.622+669.307+147.297+666.779+147.297C663.041+147.297+660.458+147.676+659.029+148.433C657.6+149.191+656.886+150.218+656.886+151.517C656.886+153.897+659.634+155.574+665.13+156.548C675.133+158.279+682.607+161.309+687.554+165.637C692.5+169.965+694.974+175.862+694.974+183.328C694.974+191.876+691.923+198.612+685.823+203.535C679.722+208.458+670.956+210.92+659.524+210.92Z" opacity="1" fill="#455875"/>
<path d="M778.734+210.92C769.94+210.92+762.163+209.161+755.403+205.645C748.643+202.128+743.367+197.178+739.575+190.794C735.782+184.41+733.886+177.161+733.886+169.046C733.886+161.255+735.865+154.168+739.822+147.784C743.779+141.4+749.165+136.369+755.98+132.69C762.796+129.011+770.38+127.171+778.734+127.171C789.397+127.171+797.806+129.335+803.961+133.664L800.828+155.25C794.563+153.41+789.397+152.491+785.33+152.491C780.053+152.491+775.876+153.978+772.798+156.954C769.721+159.93+768.182+163.96+768.182+169.046C768.182+174.131+769.721+178.189+772.798+181.218C775.876+184.248+779.943+185.763+785+185.763C789.397+185.763+794.563+184.843+800.499+183.004L803.632+205.726C799.894+207.565+796.102+208.891+792.255+209.702C788.407+210.514+783.901+210.92+778.734+210.92Z" opacity="1" fill="#455875"/>
<path d="M852.272+210.92C845.127+210.92+838.449+209.053+832.239+205.32C826.028+201.587+821.054+196.502+817.317+190.064C813.579+183.626+811.711+176.457+811.711+168.559C811.711+160.768+813.579+153.708+817.317+147.378C821.054+141.048+826.056+136.098+832.321+132.527C838.587+128.957+845.237+127.171+852.272+127.171C857.988+127.171+863.292+128.74+868.183+131.878C873.075+135.016+876.785+139.723+879.313+145.999L879.313+127.171L913.938+127.171L913.938+209.621L879.313+209.621L879.313+194.527C873.817+205.455+864.803+210.92+852.272+210.92ZM862.989+185.276C867.386+185.276+871.151+183.734+874.284+180.65C877.417+177.566+879.093+173.915+879.313+169.695L879.313+168.396C879.093+164.068+877.362+160.389+874.119+157.36C870.876+154.33+867.166+152.815+862.989+152.815C858.373+152.815+854.443+154.411+851.2+157.603C847.958+160.795+846.336+164.609+846.336+169.046C846.336+173.59+847.985+177.431+851.283+180.569C854.58+183.707+858.483+185.276+862.989+185.276Z" opacity="1" fill="#455875"/>
<path d="M930.591+129.444L965.382+129.444L965.382+145.999C967.91+139.615+971.345+134.881+975.687+131.797C980.029+128.713+985.113+127.171+990.938+127.171L995.72+153.627C985.277+153.627+977.61+154.736+972.719+156.954C967.827+159.172+965.382+162.662+965.382+167.423L965.382+209.621L930.591+209.621L930.591+129.444Z" opacity="1" fill="#455875"/>
</g>
<path d="M65.0199+220.503L488.274+220.503L488.274+242.208L65.0199+242.208L65.0199+220.503Z" opacity="1" fill="#93bca1"/>
<path d="M564.312+220.503L987.567+220.503L987.567+242.208L564.312+242.208L564.312+220.503Z" opacity="1" fill="#93bca1"/>
</g>
</svg>
