<?xml version="1.0" encoding="UTF-8" standalone="no"?> <!-- Created with Vectornator for iOS (http://vectornator.io/) --><!DOCTYPE svg PUBLIC "-//W3C//DTD SVG 1.1//EN" "http://www.w3.org/Graphics/SVG/1.1/DTD/svg11.dtd">
<svg height="100%" style="fill-rule:evenodd;clip-rule:evenodd;stroke-linecap:round;stroke-linejoin:round;" xmlns:xlink="http://www.w3.org/1999/xlink" xmlns="http://www.w3.org/2000/svg" xml:space="preserve" width="100%" xmlns:vectornator="http://vectornator.io" version="1.1" viewBox="0 0 2520.34 509.782">
<metadata>
<vectornator:setting key="DisplayWhiteBackground" value="0"/>
<vectornator:setting key="RulersVisible" value="1"/>
<vectornator:setting key="Units" value="Millimeters"/>
<vectornator:setting key="New" value="1"/>
<vectornator:setting key="DynamicGuides" value="0"/>
<vectornator:setting key="GuidesVisible" value="1"/>
<vectornator:setting key="SnapToPoints" value="0"/>
<vectornator:setting key="SnapToGrid" value="0"/>
<vectornator:setting key="SnapToGuides" value="1"/>
<vectornator:setting key="DimensionsVisible" value="1"/>
<vectornator:setting key="SnapToEdges" value="0"/>
</metadata>
<defs/>
<g id="Layer 1" vectornator:layerName="Layer 1">
<g opacity="1">
<path d="M128.638+105.495C116.042+105.495+105.389+101.475+96.6787+93.4349C87.9687+85.3949+83.6137+75.7469+83.6137+64.4909C83.6137+53.2349+88.1697+43.6539+97.2817+35.7479C106.394+27.8419+116.846+23.8889+128.638+23.8889C137.482+23.8889+145.321+25.8319+152.155+29.7179C158.989+33.6039+164.349+38.6959+168.235+44.9939C172.121+51.2919+174.064+57.7909+174.064+64.4909C174.064+76.2829+169.575+86.0649+160.597+93.8369C151.619+101.609+140.966+105.495+128.638+105.495ZM83.6137+419.457C58.9577+419.457+36.0437+412.355+14.8717+398.151L33.3637+348.303C45.4237+352.323+54.6697+354.333+61.1017+354.333C78.7897+354.333+87.6337+343.211+87.6337+320.967L87.6337+131.223L172.456+131.223L172.456+320.967C172.456+351.519+164.55+375.572+148.738+393.126C132.926+410.68+111.218+419.457+83.6137+419.457Z" opacity="1" fill="#455875"/>
<path d="M284.212+335.841C261.7+335.841+244.146+328.605+231.55+314.133C218.954+299.661+212.656+279.963+212.656+255.039L212.656+131.223L297.88+131.223L297.88+251.421C297.88+257.585+299.555+262.342+302.905+265.692C306.255+269.042+310.61+270.717+315.97+270.717C321.33+270.717+326.824+269.109+332.452+265.893L336.874+321.771C330.978+326.327+323.273+329.811+313.759+332.223C304.245+334.635+294.396+335.841+284.212+335.841ZM255.268+101.073C242.672+101.073+232.019+97.1199+223.309+89.2139C214.599+81.3079+210.244+71.5929+210.244+60.0689C210.244+48.5449+214.8+38.8969+223.912+31.1249C233.024+23.3529+243.476+19.4669+255.268+19.4669C267.596+19.4669+278.249+23.4869+287.227+31.5269C296.205+39.5669+300.694+49.0809+300.694+60.0689C300.694+71.8609+296.138+81.6429+287.026+89.4149C277.914+97.1869+267.328+101.073+255.268+101.073Z" opacity="1" fill="#455875"/>
<path d="M360.19+134.037L440.992+134.037L440.992+175.041C450.104+159.229+460.489+147.504+472.147+139.866C483.805+132.228+497.674+128.409+513.754+128.409C529.566+128.409+543.301+132.362+554.959+140.268C566.617+148.174+575.394+158.827+581.29+172.227C598.442+143.015+623.366+128.409+656.062+128.409C671.606+128.409+685.207+132.563+696.865+140.871C708.523+149.179+717.568+161.172+724+176.85C730.432+192.528+733.648+210.953+733.648+232.125L733.648+332.625L648.826+332.625L648.826+232.125C648.826+218.457+646.481+208.139+641.791+201.171C637.101+194.203+630.602+190.719+622.294+190.719C613.182+190.719+605.343+194.605+598.777+202.377C592.211+210.149+588.928+219.529+588.928+230.517L588.928+332.625L504.91+332.625L504.91+232.125C504.91+218.457+502.565+208.139+497.875+201.171C493.185+194.203+486.552+190.719+477.976+190.719C468.864+190.719+461.092+194.605+454.66+202.377C448.228+210.149+445.012+219.529+445.012+230.517L445.012+332.625L360.19+332.625L360.19+134.037Z" opacity="1" fill="#455875"/>
<path d="M772.642+134.037L853.444+134.037L853.444+175.041C862.556+159.229+872.941+147.504+884.599+139.866C896.257+132.228+910.126+128.409+926.206+128.409C942.018+128.409+955.753+132.362+967.411+140.268C979.069+148.174+987.846+158.827+993.742+172.227C1010.89+143.015+1035.82+128.409+1068.51+128.409C1084.06+128.409+1097.66+132.563+1109.32+140.871C1120.97+149.179+1130.02+161.172+1136.45+176.85C1142.88+192.528+1146.1+210.953+1146.1+232.125L1146.1+332.625L1061.28+332.625L1061.28+232.125C1061.28+218.457+1058.93+208.139+1054.24+201.171C1049.55+194.203+1043.05+190.719+1034.75+190.719C1025.63+190.719+1017.79+194.605+1011.23+202.377C1004.66+210.149+1001.38+219.529+1001.38+230.517L1001.38+332.625L917.362+332.625L917.362+232.125C917.362+218.457+915.017+208.139+910.327+201.171C905.637+194.203+899.004+190.719+890.428+190.719C881.316+190.719+873.544+194.605+867.112+202.377C860.68+210.149+857.464+219.529+857.464+230.517L857.464+332.625L772.642+332.625L772.642+134.037Z" opacity="1" fill="#455875"/>
<path d="M1292.03+424.683C1277.29+424.683+1263.22+423.209+1249.82+420.261L1256.25+360.765C1266.7+362.373+1276.35+363.177+1285.19+363.177C1301+363.177+1313.06+358.42+1321.37+348.906C1329.68+339.392+1333.97+321.503+1334.24+295.239C1320.3+322.039+1297.92+335.439+1267.1+335.439C1241.11+335.439+1220.8+326.26+1206.2+307.902C1191.59+289.544+1184.29+264.151+1184.29+231.723L1184.29+131.223L1268.71+131.223L1268.71+244.185C1268.71+253.297+1271.26+260.868+1276.35+266.898C1281.44+272.928+1288.41+275.943+1297.25+275.943C1306.36+275.943+1313.8+272.057+1319.56+264.285C1325.32+256.513+1328.21+246.329+1328.21+233.733L1328.21+131.223L1413.03+131.223L1413.03+281.571C1413.03+328.203+1402.58+363.713+1381.67+388.101C1360.77+412.489+1330.89+424.683+1292.03+424.683Z" opacity="1" fill="#455875"/>
<path d="M1451.62+152.127C1465.29+152.127+1474.27+151.859+1478.55+151.323C1482.84+150.787+1485.66+149.179+1487+146.499C1488.34+143.819+1489.01+138.727+1489.01+131.223L1451.62+131.223L1451.62+56.0489L1534.03+56.0489L1534.03+97.0529C1534.03+127.873+1532.22+150.05+1528.6+163.584C1524.98+177.118+1517.61+186.431+1506.49+191.523C1495.37+196.615+1477.08+199.161+1451.62+199.161L1451.62+152.127Z" opacity="1" fill="#455875"/>
<path d="M1641.77+335.841C1613.63+335.841+1588.97+331.687+1567.8+323.379L1577.04+275.541C1596.34+282.509+1615.1+285.993+1633.32+285.993C1646.72+285.993+1653.42+282.241+1653.42+274.737C1653.42+270.985+1651.48+267.903+1647.59+265.491C1643.71+263.079+1636.41+260.935+1625.69+259.059C1603.44+254.771+1587.43+247.535+1577.65+237.351C1567.86+227.167+1562.97+212.695+1562.97+193.935C1564.05+172.763+1572.49+156.549+1588.3+145.293C1604.11+134.037+1625.69+128.409+1653.02+128.409C1666.96+128.409+1678.95+129.28+1689+131.022C1699.05+132.764+1708.23+135.645+1716.54+139.665L1708.1+187.503C1700.32+184.555+1691.81+182.277+1682.57+180.669C1673.32+179.061+1665.62+178.257+1659.45+178.257C1650.34+178.257+1644.04+179.195+1640.56+181.071C1637.08+182.947+1635.33+185.493+1635.33+188.709C1635.33+194.605+1642.03+198.759+1655.43+201.171C1679.82+205.459+1698.05+212.963+1710.11+223.683C1722.17+234.403+1728.2+249.009+1728.2+267.501C1728.2+288.673+1720.76+305.356+1705.88+317.55C1691.01+329.744+1669.64+335.841+1641.77+335.841Z" opacity="1" fill="#455875"/>
<path d="M1932.41+335.841C1910.97+335.841+1892.01+331.486+1875.53+322.776C1859.05+314.066+1846.18+301.805+1836.94+285.993C1827.69+270.181+1823.07+252.225+1823.07+232.125C1823.07+212.829+1827.89+195.275+1837.54+179.463C1847.19+163.651+1860.32+151.189+1876.94+142.077C1893.55+132.965+1912.04+128.409+1932.41+128.409C1958.41+128.409+1978.91+133.769+1993.92+144.489L1986.28+197.955C1971+193.399+1958.41+191.121+1948.49+191.121C1935.63+191.121+1925.44+194.806+1917.94+202.176C1910.44+209.546+1906.68+219.529+1906.68+232.125C1906.68+244.721+1910.44+254.771+1917.94+262.275C1925.44+269.779+1935.36+273.531+1947.69+273.531C1958.41+273.531+1971+271.253+1985.48+266.697L1993.11+322.977C1984+327.533+1974.76+330.816+1965.38+332.826C1956+334.836+1945.01+335.841+1932.41+335.841Z" opacity="1" fill="#455875"/>
<path d="M2111.7+335.841C2094.28+335.841+2078+331.218+2062.86+321.972C2047.72+312.726+2035.59+300.13+2026.48+284.184C2017.37+268.238+2012.81+250.483+2012.81+230.919C2012.81+211.623+2017.37+194.136+2026.48+178.458C2035.59+162.78+2047.79+150.519+2063.06+141.675C2078.34+132.831+2094.55+128.409+2111.7+128.409C2125.64+128.409+2138.57+132.295+2150.5+140.067C2162.42+147.839+2171.47+159.497+2177.63+175.041L2177.63+128.409L2262.05+128.409L2262.05+332.625L2177.63+332.625L2177.63+295.239C2164.23+322.307+2142.26+335.841+2111.7+335.841ZM2137.83+272.325C2148.55+272.325+2157.73+268.506+2165.37+260.868C2173.01+253.23+2177.1+244.185+2177.63+233.733L2177.63+230.517C2177.1+219.797+2172.87+210.685+2164.97+203.181C2157.06+195.677+2148.02+191.925+2137.83+191.925C2126.58+191.925+2117+195.878+2109.09+203.784C2101.18+211.69+2097.23+221.137+2097.23+232.125C2097.23+243.381+2101.25+252.895+2109.29+260.667C2117.33+268.439+2126.85+272.325+2137.83+272.325Z" opacity="1" fill="#455875"/>
<path d="M2302.65+134.037L2387.48+134.037L2387.48+175.041C2393.64+159.229+2402.01+147.504+2412.6+139.866C2423.19+132.228+2435.58+128.409+2449.79+128.409L2461.44+193.935C2435.98+193.935+2417.29+196.682+2405.36+202.176C2393.44+207.67+2387.48+216.313+2387.48+228.105L2387.48+332.625L2302.65+332.625L2302.65+134.037Z" opacity="1" fill="#455875"/>
</g>
<path d="M192.309+359.579L1224.24+359.579L1224.24+413.337L192.309+413.337L192.309+359.579Z" opacity="1" fill="#93bca1"/>
<path d="M1409.63+359.579L2441.56+359.579L2441.56+413.337L1409.63+413.337L1409.63+359.579Z" opacity="1" fill="#93bca1"/>
</g>
</svg>
